/* XPM */
static char *_b93ada562b94819c454d77628467c6diPLoIqtEHPHwBLC2[] = {
/* columns rows colors chars-per-pixel */
"30 34 211 2 ",
"   c None",
".  c #004180",
"X  c #004281",
"o  c #004381",
"O  c #004382",
"+  c #004482",
"@  c #004583",
"#  c #004684",
"$  c #044785",
"%  c #004887",
"&  c #054884",
"*  c #054885",
"=  c #084A86",
"-  c #094A86",
";  c #0A4B87",
":  c #0B4C87",
">  c #004B8A",
",  c #004D8E",
"<  c #004E8E",
"1  c #044E8D",
"2  c #0A4C8A",
"3  c #0A4D8A",
"4  c #094E8A",
"5  c #12518B",
"6  c #13528B",
"7  c #005293",
"8  c #005496",
"9  c #005698",
"0  c #00579A",
"q  c #00579B",
"w  c #00589B",
"e  c #00589C",
"r  c #00599C",
"t  c #01599C",
"y  c #025A9D",
"u  c #045B9D",
"i  c #045C9E",
"p  c #065D9F",
"a  c #175894",
"s  c #1C5890",
"d  c #1C5990",
"f  c #1D5990",
"g  c #1A5995",
"h  c #245E94",
"j  c #296296",
"k  c #2A6396",
"l  c #23629E",
"z  c #25639F",
"x  c #0A60A0",
"c  c #0B60A0",
"v  c #0B60A2",
"b  c #0E62A4",
"n  c #1064A2",
"m  c #1466A4",
"M  c #1969A5",
"N  c #1969A6",
"B  c #1A6AA6",
"V  c #1869A9",
"C  c #1969A9",
"Z  c #226FA9",
"A  c #316EA9",
"S  c #326FAA",
"D  c #2471AA",
"F  c #2771AA",
"G  c #2C76AD",
"H  c #2F77AE",
"J  c #2F77AF",
"K  c #3672AD",
"L  c #3078AF",
"P  c #3179AF",
"I  c #2671B0",
"U  c #337AB0",
"Y  c #3279B7",
"T  c #3A7EBB",
"R  c #3B7FBB",
"E  c #4073A1",
"W  c #4174A2",
"Q  c #467FB9",
"!  c #4280B1",
"~  c #4686B6",
"^  c #4F8DBB",
"/  c #5C8AB2",
"(  c #6D94B8",
")  c #6E95B8",
"_  c #6F96BB",
"`  c #7197B9",
"'  c #7398BA",
"]  c #7398BB",
"[  c #7399BB",
"{  c #4786C1",
"}  c #4887C2",
"|  c #5189C2",
" . c #528AC3",
".. c #538EC8",
"X. c #588FC9",
"o. c #5993C1",
"O. c #5D95CC",
"+. c #5E94CC",
"@. c #5E95CE",
"#. c #5E96CE",
"$. c #6398D0",
"%. c #6298D1",
"&. c #6398D1",
"*. c #6399D1",
"=. c #6499D1",
"-. c #6499D2",
";. c #649AD2",
":. c #659AD2",
">. c #669AD2",
",. c #669BD2",
"<. c #679BD2",
"1. c #669BD3",
"2. c #679BD3",
"3. c #699CD3",
"4. c #699DD3",
"5. c #6A9DD3",
"6. c #6A9ED4",
"7. c #6B9ED4",
"8. c #7FACCD",
"9. c #6EA0D5",
"0. c #6FA1D5",
"q. c #73A3D6",
"w. c #74A4D6",
"e. c #75A4D7",
"r. c #76A5D7",
"t. c #77A6D7",
"y. c #78A7D8",
"u. c #79A7D8",
"i. c #7AA8D8",
"p. c #7BA8D8",
"a. c #7BA9D8",
"s. c #7BA9D9",
"d. c #83AECF",
"f. c #84AFCF",
"g. c #85AFCF",
"h. c #97B3CC",
"j. c #99B4CD",
"k. c #9AB5CD",
"l. c #9BB6CE",
"z. c #9DB7CF",
"x. c #89B2D1",
"c. c #8AB3D2",
"v. c #8FB6DE",
"b. c #9EB8D0",
"n. c #99BCD7",
"m. c #99BDD7",
"M. c #9ABDD7",
"N. c #90B6DF",
"B. c #91B7DF",
"V. c #92B8DD",
"C. c #92B8DF",
"Z. c #9FC0DA",
"A. c #A4C4DC",
"S. c #AECADF",
"D. c #B7CADC",
"F. c #9FC0E3",
"G. c #A0C0E3",
"H. c #A1C1E4",
"J. c #A3C3E4",
"K. c #A4C3E4",
"L. c #A7C5E5",
"P. c #AECAE7",
"I. c #AFCAE8",
"U. c #B3CEE2",
"Y. c #BBD2E4",
"T. c #BCD0E5",
"R. c #BDD4EC",
"E. c #BED4EC",
"W. c #BED5EC",
"Q. c #C0D5EC",
"!. c #C3D8E8",
"~. c #C8DBEF",
"^. c #C9DCEF",
"/. c #DBE4ED",
"(. c #DBE5ED",
"). c #DCE5EE",
"_. c #DEE7EF",
"`. c #D0E0F1",
"'. c #E0EBF6",
"]. c #E1EBF6",
"[. c #E3ECF7",
"{. c #E4EDF6",
"}. c #E9EFF4",
"|. c #EAEFF5",
" X c #E6EFF8",
".X c #E7EFF8",
"XX c #EAF1F7",
"oX c #EAF1F9",
"OX c #ECF3F8",
"+X c #EEF4F8",
"@X c #EFF5F9",
"#X c #EEF4FA",
"$X c #EFF5FA",
"%X c #F1F5F8",
"&X c #F1F6F9",
"*X c #F3F6F9",
"=X c #F0F5FA",
"-X c #F5F8FB",
";X c #F6F8FA",
":X c #F6F8FB",
">X c #F9FBFC",
",X c #F8FAFD",
"<X c #F9FBFD",
"1X c #FAFCFD",
"2X c #FBFCFD",
"3X c #FAFCFE",
"4X c #FBFCFE",
"5X c #FCFCFD",
"6X c #FCFDFE",
"7X c #FEFEFF",
"8X c white",
/* pixels */
"                          :.:.:.:.                          ",
"                        :.:.:.:.:.:.                        ",
"                    :.:.:.:.:.:.:.:.:.:.                    ",
"                :.:.:.:.:.:.:.:.:.:.:.:.:.:.                ",
"              :.:.:.:.:.2.-.-.-.:.:.:.:.:.:.:.:.            ",
"          :.:.:.:.:.:.:.:.-.-.-.:.:.:.:.:.:.:.:.:.          ",
"      :.:.:.:.:.:.:.-.-.7.q.p.p.w.5.-.-.:.:.:.:.:.:.:.      ",
"  :.:.:.:.:.:.:.-.-.y.L.`. X@X@X X`.L.y.-.-.:.:.:.:.:.:.:.  ",
":.:.:.:.:.:.:.:.7.J. X8X8X8X8X8X8X8X8X{.K.7.:.:.:.:.:.2.#.R ",
":.:.:.:.:.:.-.7.R.8X8X8X8X8X8X8X8X8X8X8X8XQ.7.:.:.2.-.} V r ",
":.:.:.:.:.:.5.R.8X8X8X8X8X8X8X8X8X8X8X8X8X8XE.7.:...I i w r ",
":.:.:.:.:.:.G.4X8X8X8X8X8X<X@X@X<X8X8X8X8X8X8XB.Y v w r r r ",
":.:.:.:.-.e.].8X8X8X8X4X~.v.y.y.B.~.<X8X8X-XA.L r r r r r r ",
":.:.:.:.-.F.8X8X8X8X4XP.2.-.-.-.%.5.I.,X!.^ i r r r r r r r ",
":.:.:.:.:.^.8X8X8X8X^.2.-.:.:.:.:.:.#.o.m q r w r r r r r r ",
":.:.:.:.0.'.8X8X8X<XC.-.:.:.:.2.#.T b q w q G 8.v q M g.M w ",
":.:.:.-.e.oX8X8X8X=Xp.$.>.>.-.~ V r r r q L S.XXg.G n.OXM.D ",
":.:.:.-.e.oX8X8X8X=Xp.$.>.| Z 1 8 w r r q U U.OXc.L A.&XM.D ",
":.:.:.:.q.].8X8X8X<XN.X.A ; o o @ < q q w w L g.b q M c.M q ",
":.:.:.:.:.^.8X8X8X8XQ.g X . o @ o o = Q n w w w w w w r r r ",
":.:.:.:.:.G.8X8X8X8X;X` & . o o . & ' %XY.~ i q r r r r r r ",
":.:.:.:.:.e.'.8X8X8X8X;Xl.E f f W b.-X8X8X%XM.F r r r r r r ",
":.:.:.2.+.K _ <X8X8X8X8X8X%X_._.*X8X8X8X8X8X5X/ , q r r r r ",
":.-.%.~ a O - h.8X8X8X8X8X8X8X8X8X8X8X8X8X8Xj.- @ # 7 r r r ",
"$.| l $ . O . 6 j.2X8X8X8X8X8X8X8X8X8X8X5Xl.6 o O @ @ > 8 w ",
"S 2 O @ @ @ @ . : ) /.8X8X8X8X8X8X8X8X/.) : o o @ O @ O @ , ",
"  O @ O o @ @ @ @ . h ' D./.}.XX(.D.' j o o o @ O @ O @ @   ",
"      @ @ o @ o @ @ . . - d j j d * . . o @ @ @ @ O @       ",
"          @ O @ @ . @ @ @ . . . @ @ . @ @ O @ . @           ",
"            @ O O @ @ o o @ @ @ @ O o @ O @ O @             ",
"                @ @ @ o @ o @ o @ o @ o @ O                 ",
"                    o @ o @ o @ o @ o @                     ",
"                        @ O @ O O @                         ",
"                          @ O @ @                           "
};
