/* XPM */
static char *d647b9468627443cf1adea53f006fe95G3UxgHlGV9PiSN5L[] = {
/* columns rows colors chars-per-pixel */
"30 33 247 2 ",
"   c None",
".  c #1B1F7E",
"X  c #1C207E",
"o  c #1C207F",
"O  c #1D217F",
"+  c #1E227F",
"@  c #1F237F",
"#  c #1E2280",
"$  c #1F2380",
"%  c #202480",
"&  c #202481",
"*  c #212581",
"=  c #202482",
"-  c #202582",
";  c #212582",
":  c #202583",
">  c #212583",
",  c #222682",
"<  c #232783",
"1  c #222785",
"2  c #232883",
"3  c #242883",
"4  c #242983",
"5  c #232885",
"6  c #242984",
"7  c #252984",
"8  c #262A84",
"9  c #262B85",
"0  c #272B85",
"q  c #282C85",
"w  c #282C86",
"e  c #282D86",
"r  c #222789",
"t  c #262B88",
"y  c #242A8B",
"u  c #262B8A",
"i  c #252B8C",
"p  c #252B8D",
"a  c #282E8C",
"s  c #2B3088",
"d  c #2C3088",
"f  c #2E3289",
"g  c #2E328A",
"h  c #2E338A",
"j  c #30348B",
"k  c #30358B",
"l  c #31358B",
"z  c #33378C",
"x  c #34388D",
"c  c #2C3390",
"v  c #293094",
"b  c #293195",
"n  c #293196",
"m  c #2B3296",
"M  c #283098",
"N  c #293198",
"B  c #293298",
"V  c #2A3298",
"C  c #2A3299",
"Z  c #2B3399",
"A  c #2C349A",
"S  c #2E369A",
"D  c #2E369B",
"F  c #2F379B",
"G  c #313895",
"H  c #343B9A",
"J  c #30389D",
"K  c #323A9C",
"L  c #31399E",
"P  c #323B9F",
"I  c #373F9D",
"U  c #353D9E",
"Y  c #383F9F",
"T  c #353EA1",
"R  c #3F4393",
"E  c #3E459D",
"W  c #3840A1",
"Q  c #3B43A1",
"!  c #3A42A5",
"~  c #3D46A7",
"^  c #3F48A6",
"/  c #424694",
"(  c #474B99",
")  c #4C4F9A",
"_  c #4D519B",
"`  c #54589F",
"'  c #4148A4",
"]  c #4049AA",
"[  c #434DAB",
"{  c #434CAC",
"}  c #454FAE",
"|  c #4B51A7",
" . c #4650AE",
".. c #4751AF",
"X. c #4B52A9",
"o. c #4851AF",
"O. c #585BA1",
"+. c #5B5EA3",
"@. c #5158AC",
"#. c #4650B0",
"$. c #4651B0",
"%. c #4751B0",
"&. c #4752B0",
"*. c #4852B0",
"=. c #4852B1",
"-. c #4953B1",
";. c #4953B2",
":. c #4A54B1",
">. c #4954B2",
",. c #4A54B2",
"<. c #4B55B2",
"1. c #4D56B0",
"2. c #4C55B2",
"3. c #4C56B2",
"4. c #4C56B3",
"5. c #4D56B3",
"6. c #4D57B3",
"7. c #4E57B3",
"8. c #4E58B3",
"9. c #4E58B4",
"0. c #4F59B4",
"q. c #5059B4",
"w. c #515AB4",
"e. c #515BB5",
"r. c #525BB5",
"t. c #525CB5",
"y. c #535CB5",
"u. c #535DB6",
"i. c #555EB6",
"p. c #555FB6",
"a. c #5D60A4",
"s. c #5862B8",
"d. c #5962B8",
"f. c #5A63B8",
"g. c #5A63B9",
"h. c #5B64B9",
"j. c #5C65B9",
"k. c #5D66BA",
"l. c #6265A7",
"z. c #6A6DAB",
"x. c #6B6EAC",
"c. c #6C6FAC",
"v. c #6D70AD",
"b. c #7073AE",
"n. c #6168B8",
"m. c #6169BB",
"M. c #646DBD",
"N. c #6C72B9",
"B. c #6A72BF",
"V. c #6D73BC",
"C. c #7275B0",
"Z. c #7578B1",
"A. c #7A7CB4",
"S. c #7A7DB5",
"D. c #6E76C1",
"F. c #727AC3",
"G. c #7A7FC0",
"H. c #7E83C2",
"J. c #7980C6",
"K. c #7A81C6",
"L. c #7C83C7",
"P. c #8083B8",
"I. c #8083BB",
"U. c #8285B9",
"Y. c #8386BA",
"T. c #8389CA",
"R. c #838ACA",
"E. c #848BCA",
"W. c #8990CD",
"Q. c #8E94CF",
"!. c #9196CB",
"~. c #959BD1",
"^. c #979DD2",
"/. c #989ED3",
"(. c #9BA1D4",
"). c #9DA2D5",
"_. c #A4A9D8",
"`. c #A5AAD8",
"'. c #A5AAD9",
"]. c #A7ACD9",
"[. c #A8ADDA",
"{. c #A9AEDA",
"}. c #ADB2DC",
"|. c #AEB3DC",
" X c #AFB3DC",
".X c #AFB3DD",
"XX c #B2B4D4",
"oX c #B0B4DD",
"OX c #B6BADF",
"+X c #BABCD9",
"@X c #BBBDD9",
"#X c #B8BBDD",
"$X c #C1C2DC",
"%X c #C5C7DF",
"&X c #C1C3E1",
"*X c #C7C9E4",
"=X c #CECFE4",
"-X c #D1D3EB",
";X c #D1D4EB",
":X c #D5D7EB",
">X c #D3D6EC",
",X c #D6D8ED",
"<X c #D9DBEE",
"1X c #DFE1F1",
"2X c #E2E3EF",
"3X c #E3E4F3",
"4X c #E3E5F3",
"5X c #E6E7F1",
"6X c #E4E6F3",
"7X c #E6E7F3",
"8X c #E5E7F4",
"9X c #E6E7F4",
"0X c #E8E9F2",
"qX c #EAEAF3",
"wX c #E9EBF5",
"eX c #EAEBF5",
"rX c #EAEBF6",
"tX c #EDEDF5",
"yX c #EDEEF7",
"uX c #F0F0F6",
"iX c #F0F1F7",
"pX c #F1F1F7",
"aX c #F1F2F9",
"sX c #F2F3F9",
"dX c #F4F4F8",
"fX c #F5F5F9",
"gX c #F6F6F9",
"hX c #F4F4FA",
"jX c #F6F6FA",
"kX c #F7F7FA",
"lX c #F6F6FB",
"zX c #F6F7FB",
"xX c #F8F8FB",
"cX c #F8F9FB",
"vX c #F8F8FC",
"bX c #F9F9FC",
"nX c #FAFAFC",
"mX c #FBFBFC",
"MX c #FBFBFD",
"NX c #FCFCFD",
"BX c #FCFDFD",
"VX c #FDFDFD",
"CX c #FDFDFE",
"ZX c #FEFEFE",
"AX c #FFFEFE",
"SX c #FFFFFE",
"DX c white",
/* pixels */
"                          g.4.0.g.                          ",
"                        r.:.-.-.:.r.                        ",
"                    u.>.-.-.-.-.-.-.4.r.                    ",
"                p.>.:.:.-.-.-.-.-.-.-.-.4.i.                ",
"            g.3.%.:.:.-.#.#.%.%.%.#.%.:.>.%.0.s.            ",
"        g.0.:.-.%.%.%.k.L.^.'.'.~.G.j.%.%.:.-.:.r.          ",
"      t.:.-.-.-.%.D.}.6XvXAXAXAXAXvX1X].M.%.:.:.-.-.r.      ",
"  t.:.-.-.-.%.0./.wXAXAXCXAXAXCXAXAXAXAX6XQ.>.>.-.-.-.3.t.  ",
"r.-.-.-.>.%.t..XCXAXCXAXAXAXCXAXAXCXAXCXAXkX'.4.%.-.-.} ! W ",
"4.-.-.-.:.8.].AXAXAXAXCXAXAXAXAXAXAXCXAXAXAXMX(.:.%.~ L V S ",
"4.-.-.-.#.L.zXAXAXCXCXAXAXsX6X6XsXAXAXCXAXAXAXrXm.L Z Z Z S ",
"4.-.-.-.s.>XAXAXCXAXAXyX'.D.j.j.F..XaXAXAXAX,XG.U V Z Z Z F ",
"4.-.-.#.T.MXAXCXAXAX8XK.-.%.%.-.%.%.E.wX8X!.' V V Z Z Z Z F ",
"4.-.-.-.OXAXCXAXCXvXW.%.%.:.-.-.>.>.:.V.@.V V Z Z Z Z Z Z F ",
"4.-.-.r.,XAXAXAXAX>Xt.%.>.-.-.-.>.^ P V V V Z Z Z Z Z Z Z F ",
"4.3.-.j.8XAXAXAXAX].%.%.:.-.-.{ T Z Z Z Z Z Z Z Z Z Z Z Z F ",
":.:.>.k.wXAXCXAXAX(.%.>.:.[ H V Z V Z Z Z Z Z Z Z Z Z Z Z S ",
"4.:.%.j.6XAXAXCXAX.X%. .E t $ $ p n Z Z Z V Z Z Z Z Z Z Z J ",
"4.:.>.0.;XAXCXAXAX<XX.a # X $ $ $ : p n n M Z Z Z Z Z Z Z S ",
"4.:.>.%.}.AXAXAXAXCXY.X # # + + $ + : I.K.E M V Z Z Z Z Z J ",
"4.-.-.%.K.zXAXAXAXAXwXZ.2 X X X X q U.sXCX*XN.J V Z Z Z Z F ",
"4.-.-.-.:.&XAXAXCXAXAXkXXXz._ _ v.+XvXAXAXAXkX#XX.V Z Z Z F ",
"4.>.-.W t O.wXAXAXCXAXAXAXnXiXiXAXAXAXCXCXCXAX2X( r n Z Z D ",
"4.^ h : + $ S.sXAXAXCXAXAXAXAXAXAXAXAXAXAXAXiXx.+ # $ p n S ",
"E 5 # $ $ # : U.uXAXAXAXAXAXAXCXAXAXAXAXAXqXb.: # $ $ $ 5 G ",
"  z 7 # $ $ + : l.=XAXAXAXCXCXAXAXAXAXMX%XO.@ @ $ $ $ 7 k   ",
"      f < @ # % . z A.$X6XcXAXCXzX6X+XC.f + : @ $ 2 h       ",
"          d : # + + + q / a.v.v.+.R 7 + + # @ : s           ",
"              q : @ @ + + + . X X + $ $ : : q               ",
"                x 7 : @ # $ # $ @ $ $ $ 7                   ",
"                    k 4 # # $ $ $ $ 7 h                     ",
"                        f : $ $ 2 h                         ",
"                            q q                             "
};
