/* XPM */
static char *_f2a8afede794c5dcc24329299e5201dwaIk7qOsCVRdP7uk[] = {
/* columns rows colors chars-per-pixel */
"29 29 123 2 ",
"   c None",
".  c #2CD65C",
"X  c #2DD65C",
"o  c #2DD65D",
"O  c #2ED65D",
"+  c #2ED65E",
"@  c #2FD65E",
"#  c #30D65F",
"$  c #32D660",
"%  c #32D760",
"&  c #35D763",
"*  c #36D764",
"=  c #38D765",
"-  c #38D865",
";  c #3FD96A",
":  c #3FD96B",
">  c #40D96B",
",  c #42D96D",
"<  c #43D96E",
"1  c #44D96F",
"2  c #45D96F",
"3  c #46DA70",
"4  c #4CDB75",
"5  c #4DDB76",
"6  c #52DC79",
"7  c #52DC7A",
"8  c #54DC7B",
"9  c #55DC7C",
"0  c #56DC7D",
"q  c #57DC7D",
"w  c #5CDD81",
"e  c #62DE86",
"r  c #69DF8B",
"t  c #6CE08E",
"y  c #6EE08F",
"u  c #6EE090",
"i  c #70E091",
"p  c #72E193",
"a  c #73E193",
"s  c #73E194",
"d  c #74E194",
"f  c #75E195",
"g  c #76E196",
"h  c #78E297",
"j  c #78E298",
"k  c #79E298",
"l  c #7AE299",
"z  c #7BE29A",
"x  c #7CE29A",
"c  c #7CE29B",
"v  c #80E39E",
"b  c #82E39F",
"n  c #83E3A0",
"m  c #87E4A3",
"M  c #88E4A4",
"N  c #89E4A4",
"B  c #89E4A5",
"V  c #8AE5A6",
"C  c #8CE5A7",
"Z  c #8DE5A7",
"A  c #8DE5A8",
"S  c #8EE5A9",
"D  c #90E5AA",
"F  c #94E6AE",
"G  c #96E6AF",
"H  c #97E6AF",
"J  c #97E6B0",
"K  c #98E7B0",
"L  c #99E7B1",
"P  c #9AE7B2",
"I  c #9BE7B3",
"U  c #9CE7B4",
"Y  c #9DE8B4",
"T  c #9EE8B5",
"R  c #9FE8B6",
"E  c #A0E8B7",
"W  c #A3E8B9",
"Q  c #A4E8BA",
"!  c #A7E9BC",
"~  c #ACEAC0",
"^  c #ADEAC1",
"/  c #B2EBC5",
"(  c #B3EBC5",
")  c #B7ECC9",
"_  c #B9ECCA",
"`  c #BEEDCE",
"'  c #C2EDD2",
"]  c #C4EED3",
"[  c #CCEFD9",
"{  c #D1F0DD",
"}  c #D2F0DE",
"|  c #D3F0DE",
" . c #D4F0DF",
".. c #D5F0E0",
"X. c #D5F0E1",
"o. c #DAF1E4",
"O. c #DCF2E6",
"+. c #DDF2E7",
"@. c #DEF2E8",
"#. c #DFF2E8",
"$. c #E0F2E9",
"%. c #E1F2E9",
"&. c #E1F2EA",
"*. c #E2F2EB",
"=. c #E3F3EB",
"-. c #E3F3EC",
";. c #E5F3ED",
":. c #E6F3EE",
">. c #E7F3EE",
",. c #E9F3F0",
"<. c #E9F4F0",
"1. c #EBF4F2",
"2. c #ECF4F3",
"3. c #EDF4F3",
"4. c #EEF4F4",
"5. c #F0F5F5",
"6. c #F1F5F6",
"7. c #F2F5F7",
"8. c #F3F5F8",
"9. c #F4F5F8",
"0. c #F4F5F9",
"q. c #F6F6FA",
"w. c #F7F6FB",
/* pixels */
"                    @ @ @ @ @ @ @ @ @                     ",
"                @ @ @ @ @ @ @ @ @ @ @ @ @                 ",
"            @ @ @ @ @ @ @ @ @ @ @ @ @ @ @ @ @             ",
"          @ @ @ @ @ @ @ @ @ @ @ @ @ @ @ @ @ @ @           ",
"        @ @ @ @ @ @ @ @ @ @ @ @ @ @ @ @ @ @ @ @ @         ",
"      @ @ @ @ @ @ @ @ @ @ @ @ @ @ @ @ @ @ @ @ @ @ @       ",
"    @ @ @ @ @ @ @ @ @ @ @ @ @ @ @ @ @ @ @ @ @ @ @ @ @     ",
"    @ @ @ @ @ @ @ @ @ @ @ @ @ @ @ @ @ @ @ @ @ @ @ @ @     ",
"  @ @ @ @ @ @ @ @ @ @ @ @ @ @ @ @ @ @ @ @ @ @ @ @ @ @ @   ",
"  @ @ @ @ @ @ @ @ @ @ @ @ @ @ @ @ @ @ @ @ @ @ @ @ @ @ @   ",
"@ @ @ @ @ @ @ @ & 5 - @ @ @ @ @ @ @ # # @ @ @ @ @ @ @ @ @ ",
"@ @ @ @ X @ @ @ h $.M X . @ @ @ @ @ @ # X @ X @ @ @ @ @ @ ",
"@ @ @ * c ~ ! 6 a 9.V , V T ~ l # 4 Y ~ U 5 1 K ~ E 8 @ @ ",
"@ @ # C 4.5.q.C y 2.f 0 +.+.:.$.6 U q.$.2.V C q.$.4.G @ @ ",
"@ @ > { $.f V 0 y <.l , _ +.-.1.w b 4.$. .e h 2.$...y X @ ",
"@ @ > [ $.l c a f 5.( b 4.' ] 5.c c  ...2.G d  ...2.Q # @ ",
"@ @ # V :.8.5.A n q.) l ,.o.+.q.Q ` 5.>.8.G / 8.:.5.W @ @ ",
"@ @ @ * y P V 1 3 A 9 * l U A F 6 u M J n ; r V G m , @ @ ",
"@ @ @ @ X X X @ @ . @ @ @ @ . X @ @ . . X X @ . @ . @ @ @ ",
"  @ @ @ @ @ @ @ @ @ @ @ @ @ @ @ @ @ @ @ @ @ @ @ @ @ @ @   ",
"  @ @ @ @ @ @ @ @ @ @ @ @ @ @ @ @ @ @ @ @ @ @ @ @ @ @ @   ",
"    @ @ @ @ @ @ @ @ @ @ @ @ @ @ @ @ @ @ @ @ @ @ @ @ @     ",
"    @ @ @ @ @ @ @ @ @ @ @ @ @ @ @ @ @ @ @ @ @ @ @ @ @     ",
"      @ @ @ @ @ @ @ @ @ @ @ @ @ @ @ @ @ @ @ @ @ @ @       ",
"        @ @ @ @ @ @ @ @ @ @ @ @ @ @ @ @ @ @ @ @ @         ",
"          @ @ @ @ @ @ @ @ @ @ @ @ @ @ @ @ @ @ @           ",
"            @ @ @ @ @ @ @ @ @ @ @ @ @ @ @ @ @             ",
"                @ @ @ @ @ @ @ @ @ @ @ @ @                 ",
"                    @ @ @ @ @ @ @ @ @                     "
};
