/* XPM */
static char *afa598322ab4498fbbed4cf3894467893VzVT6iiaRVmlxXz[] = {
/* columns rows colors chars-per-pixel */
"32 32 33 1 ",
"  c #2C2D33",
". c #383238",
"X c #B86771",
"o c #CC6C74",
"O c #D16F77",
"+ c #CC727A",
"@ c #DA7580",
"# c #E47984",
"$ c #E67A85",
"% c #9C9D9F",
"& c #B2B1B6",
"* c #B6B5BA",
"= c #BAB9BE",
"- c #CB838A",
"; c #D0858D",
": c #DF8D97",
"> c #C3A4AA",
", c #C6B3B8",
"< c #BCBBC0",
"1 c #C9BCC2",
"2 c #C1C2C3",
"3 c #C2C2C5",
"4 c #C5C3C7",
"5 c #C9C7CD",
"6 c #CACACD",
"7 c #CECED1",
"8 c #D3D3D5",
"9 c #D7D7D8",
"0 c #DBDBDC",
"q c #DFDFE0",
"w c #E3E3E4",
"e c #E7E7E8",
"r c #F3F4F3",
/* pixels */
"$$$$$$$$$$$$$$$$$$$$$$$$$$$$$$$$",
"$$$$$$$$$$$$$$$$$$$$$$$$$$$$$$$$",
"$$$$$$$$$$$$$$$$$$$$$$$$$$$$$$$$",
"$$$$$$$$$$$$$$$$$$$$$$$$$$$$$$$$",
"$$$$$$$$$$$$$$$$$$$$$$$$$$$$$$$$",
"$$$$$$$$$$$$$$$$$$$$$$$$$$$$$$$$",
"$$$$$@XXXXXXXXXXXXXXXXXXXXO$$$$$",
"$$$$$.                    .$$$$$",
"$$$$$ %222222222222222224% O$$$$",
"$$$$$ 20q880rrrrrrrrrr0903 oO#$$",
"$$$$$ 20888800888800888802 ooO#$",
"$$$$$ 23&&&&33&&&&33&&&&33 oooO#",
"$$$$$ 23&&&&33&&&&33&&&&32 ooooO",
"$$$$$ 27338we9336we7338we2 ooooo",
"$$$$$ 23&&=378&&*333&&=372 ooooo",
"$$$$$ 27333370333337333372 ooooo",
"$$$$$ 27333370333337333372 ooooo",
"$$$$$ 27330rr0337rr7330rr2 ooooo",
"$$$$$ %322222232222222232% ooooo",
"$$$$$                      ooooo",
"$$$$$5555555555565555555555ooooo",
"$$$$$5555555565555565555555ooooo",
"$$$$$:------><<==<<>-------ooooo",
"$$$$$$$Ooo+-,444444,-+oooooooooo",
"$$$$$$$#Oo155555555551oooooooooo",
"$$$$$$$$#Ooooooooooooooooooooooo",
"$$$$$$$$$#Oooooooooooooooooooooo",
"$$$$$$$$$$#Ooooooooooooooooooooo",
"$$$$$$$$$$$#Oooooooooooooooooooo",
"$$$$$$$$$$$$#Ooooooooooooooooooo",
"$$$$$$$$$$$$$#Oooooooooooooooooo",
"$$$$$$$$$$$$$$#Ooooooooooooooooo"
};
