/* XPM */
static char *_a73fa2cfb37460b9424b4c833702f4cwLXz6pgATJFiKdTn[] = {
/* columns rows colors chars-per-pixel */
"33 33 21 1 ",
"  c None",
". c #FFC107",
"X c #FFC207",
"o c #FFC108",
"O c #FEC10A",
"+ c #0376BB",
"@ c #0476BA",
"# c #0476BB",
"$ c #0576BB",
"% c #0376BC",
"& c #0277BC",
"* c #0377BC",
"= c #0276BD",
"- c #0376BD",
"; c #0277BD",
": c #0377BD",
"> c #0176BE",
", c #0076BF",
"< c #0176BF",
"1 c #0277BE",
"2 c #0476BC",
/* pixels */
"                                 ",
"                                 ",
"                                 ",
"               **$               ",
"            ::::$1::*            ",
"           1::::$1:::            ",
"           1  ::1:::::           ",
"           :  ::1:::::           ",
"           1::::11111*           ",
"           $$$$$$$11**           ",
"                 11111 oXXXo     ",
"     $11$$11::::$11111 oXXXX     ",
"    **$1$$11$1::1$$$*1 o....o    ",
"    **1111$1:1111$$1** o....o    ",
"   **111$$11:::$$111*  ...X.X    ",
"   **111111$::$111$1  X...XXX    ",
"   :$111***          oX......    ",
"   111$$**   Xoooooo..X......    ",
"   11$$11* XXX..XXoo........X    ",
"   $11$$1  ..X..Xooo...X....X    ",
"    111$1  o....XXooXXXX..XX     ",
"    11111  o....XXoo.Xoo.Xo      ",
"     1***  o...o                 ",
"           o...oooOOo            ",
"           oXX...XXXXX           ",
"           o.X...X  .X           ",
"           X......o ..           ",
"           o.......XX            ",
"            XXoo.ooXX            ",
"               oo                ",
"                                 ",
"                                 ",
"                                 "
};
